<?xml version="1.0" encoding="UTF-8"?>
<svg width="120" height="120" viewBox="0 0 120 120" xmlns="http://www.w3.org/2000/svg">
  <g fill="none" fill-rule="evenodd">
    <rect fill="#155BD4" width="120" height="120" rx="8"/>
    <path d="M64.523 84.352c-.653 3.647-1.958 8.47-5.224 12.117-1.305 1.306-2.611 1.959-4.57 1.959-2.611 0-5.223-1.306-7.834-3.265-9.14-5.876-21.258-9.523-31.7-5.876-1.958.653-3.917.653-5.223-1.306-1.306-1.959-.653-4.57 1.305-5.876 13.059-5.224 28.44-1.306 39.534 6.53 1.305.652 2.611 1.305 3.264 1.305.653 0 1.306-.653 1.959-1.959 2.611-3.264 3.917-7.834 4.57-11.1.653-3.264 3.917-5.223 7.181-4.57 2.612.653 4.57 3.917 3.918 7.181-1.306 1.959-3.265 3.918-6.53 4.57zm3.917-22.563c-2.612 0-4.57-2.612-4.57-5.223 0-3.265 2.61-5.224 4.57-5.224 3.264 0 5.223 2.612 5.223 5.224 0 2.61-1.959 5.223-5.223 5.223zm-18.646-1.306c-3.265 0-5.877-2.611-5.877-5.876 0-3.265 2.612-5.877 5.877-5.877 3.264 0 5.876 2.612 5.876 5.877 0 3.265-2.612 5.876-5.876 5.876zm-2.612-29.093c13.059 0 23.87 9.14 23.87 20.605 0 9.14-5.877 17.34-15.017 19.952-1.958.653-3.917-.653-4.57-2.611-.652-1.959.653-3.918 2.612-4.57 6.53-1.959 10.446-7.835 10.446-13.712 0-7.834-7.835-14.364-18.646-14.364-9.793 0-18.646 7.182-18.646 14.364 0 5.877 3.917 10.447 9.794 13.06 1.958.652 3.264 2.61 2.611 4.569-.653 1.958-2.611 3.264-4.57 2.611-8.487-3.264-14.364-11.099-14.364-20.24-.653-11.1 10.447-19.664 26.48-19.664zm32.353 12.483c14.364 0 25.464 11.752 25.464 25.463 0 3.917-.653 7.834-2.612 11.1-1.305 1.958-3.917 2.611-5.876 1.958-1.959-1.305-2.612-3.917-1.306-5.876.653-1.958 1.306-4.57 1.306-7.182 0-9.793-7.835-17.34-17.341-17.34-9.14 0-17.34 7.834-17.34 17.34 0 9.794 7.835 17.341 17.34 17.341 3.265 0 6.53-.653 9.141-2.612 1.959-1.305 4.57-.652 5.223 1.306.652 1.959 0 4.57-1.958 5.223-3.918 1.96-7.835 3.265-12.406 3.265-13.71 0-24.81-11.1-24.81-24.81.653-13.711 11.1-24.81 25.464-24.81-.653-.653-.653 0 .653 0z" fill="#FFF"/>
  </g>
</svg> 